<svg xmlns="http://www.w3.org/2000/svg" width="939" height="527">
<rect width="100%" height="100%" fill="#ffffff"/>
<text x="40" y="26" font-family="sans-serif" font-size="15" font-weight="bold">ldo_capless floorplan -- 537 x 273 um slot</text>
<rect x="40" y="40" width="859" height="437" fill="#f8f9fa" stroke="#212529" stroke-width="2"/>
<rect x="49.6" y="60.0" width="308.8" height="309.6" fill="#219ebc" fill-opacity="0.75" stroke="#212529" stroke-width="1"/>
<text x="52.6" y="73.0" font-family="sans-serif" font-size="10">Cm  193x193.5</text>
<rect x="49.6" y="379.2" width="152.0" height="88.0" fill="#219ebc" fill-opacity="0.75" stroke="#212529" stroke-width="1"/>
<text x="52.6" y="392.2" font-family="sans-serif" font-size="10">erramp devices</text>
<rect x="209.6" y="379.2" width="64.0" height="88.0" fill="#8ecae6" fill-opacity="0.75" stroke="#212529" stroke-width="1"/>
<text x="212.6" y="392.2" font-family="sans-serif" font-size="10">vref divider</text>
<rect x="368.0" y="160.0" width="96.0" height="307.2" fill="#ffb703" fill-opacity="0.75" stroke="#212529" stroke-width="1"/>
<text x="371.0" y="173.0" font-family="sans-serif" font-size="10">fbtrim ladder</text>
<rect x="475.2" y="227.2" width="38.7" height="240.0" fill="#e76f51" fill-opacity="0.75" stroke="#212529" stroke-width="1"/>
<rect x="520.0" y="275.2" width="13.8" height="192.0" fill="#e76f51" fill-opacity="0.75" stroke="#212529" stroke-width="1"/>
<rect x="540.8" y="421.6" width="44.8" height="45.6" fill="#e76f51" fill-opacity="0.75" stroke="#212529" stroke-width="1"/>
<rect x="540.8" y="227.2" width="64.0" height="185.6" fill="#e76f51" fill-opacity="0.75" stroke="#212529" stroke-width="1"/>
<text x="543.8" y="240.2" font-family="sans-serif" font-size="10">boost devices</text>
<rect x="368.0" y="52.8" width="72.0" height="96.0" fill="#adb5bd" fill-opacity="0.75" stroke="#212529" stroke-width="1"/>
<text x="371.0" y="65.8" font-family="sans-serif" font-size="10">ilim</text>
<rect x="448.0" y="52.8" width="72.0" height="96.0" fill="#adb5bd" fill-opacity="0.75" stroke="#212529" stroke-width="1"/>
<text x="451.0" y="65.8" font-family="sans-serif" font-size="10">pgood</text>
<rect x="528.0" y="60.8" width="64.0" height="152.0" fill="#adb5bd" fill-opacity="0.75" stroke="#212529" stroke-width="1"/>
<text x="531.0" y="73.8" font-family="sans-serif" font-size="10">enable + Rls</text>
<rect x="632.0" y="305.1" width="247.8" height="162.1" fill="#fb8500" fill-opacity="0.75" stroke="#212529" stroke-width="1"/>
<text x="635.0" y="318.1" font-family="sans-serif" font-size="10">pass array 64x</text>
<rect x="622.4" y="228.0" width="64.0" height="64.8" fill="#219ebc" fill-opacity="0.75" stroke="#212529" stroke-width="1"/>
<text x="625.4" y="241.0" font-family="sans-serif" font-size="10">Cc 40x40.5</text>
<rect x="689.6" y="92.0" width="200.0" height="200.8" fill="#2a9d8f" fill-opacity="0.75" stroke="#212529" stroke-width="1"/>
<text x="692.6" y="105.0" font-family="sans-serif" font-size="10">Cout 125x125.5</text>
<text x="40" y="499" font-family="sans-serif" font-size="11">first-cut placement from measured device geometry -- no routing channels, guard rings or taps reserved</text>
</svg>
