<svg xmlns="http://www.w3.org/2000/svg" xmlns:xlink="http://www.w3.org/1999/xlink" width="1000" height="700" version="1.1">
<style type="text/css">
.l0{
  fill: #000000;
  stroke: #000000;
  stroke-linecap:round;
  stroke-linejoin:round;
  stroke-width: 0.24;
}
.l1{
  fill: #00ddff;
  stroke: #00ddff;
  stroke-linecap:round;
  stroke-linejoin:round;
  stroke-width: 0.24;
}
.l2{
  fill: #4f4f4f; fill-opacity: 0.2;
  stroke: #4f4f4f;
  stroke-linecap:round;
  stroke-linejoin:round;
  stroke-width: 0.24;
}
.l3{
  fill: #cccccc; fill-opacity: 0.5;
  stroke: #cccccc;
  stroke-linecap:round;
  stroke-linejoin:round;
  stroke-width: 0.24;
}
.l4{
  fill: #88dd00;
  stroke: #88dd00;
  stroke-linecap:round;
  stroke-linejoin:round;
  stroke-width: 0.24;
}
.l5{
  fill: #bb2200;
  stroke: #bb2200;
  stroke-linecap:round;
  stroke-linejoin:round;
  stroke-width: 0.24;
}
.l6{
  fill: #00aaff; fill-opacity: 0.5;
  stroke: #00aaff;
  stroke-linecap:round;
  stroke-linejoin:round;
  stroke-width: 0.24;
}
.l7{
  fill: #ff0000; fill-opacity: 0.5;
  stroke: #ff0000;
  stroke-linecap:round;
  stroke-linejoin:round;
  stroke-width: 0.24;
}
.l8{
  fill: #ffff00; fill-opacity: 0.5;
  stroke: #ffff00;
  stroke-linecap:round;
  stroke-linejoin:round;
  stroke-width: 0.24;
}
.l9{
  fill: #ffffff; fill-opacity: 0.5;
  stroke: #ffffff;
  stroke-linecap:round;
  stroke-linejoin:round;
  stroke-width: 0.24;
}
.l10{
  fill: #ff00ff;
  stroke: #ff00ff;
  stroke-linecap:round;
  stroke-linejoin:round;
  stroke-width: 0.24;
}
.l11{
  fill: #00ff00; fill-opacity: 0.5;
  stroke: #00ff00;
  stroke-linecap:round;
  stroke-linejoin:round;
  stroke-width: 0.24;
}
.l12{
  fill: #0044ff; fill-opacity: 0.5;
  stroke: #0044ff;
  stroke-linecap:round;
  stroke-linejoin:round;
  stroke-width: 0.24;
}
.l13{
  fill: #aaaa00; fill-opacity: 0.5;
  stroke: #aaaa00;
  stroke-linecap:round;
  stroke-linejoin:round;
  stroke-width: 0.24;
}
.l14{
  fill: #aaccaa; fill-opacity: 0.2;
  stroke: #aaccaa;
  stroke-linecap:round;
  stroke-linejoin:round;
  stroke-width: 0.24;
}
.l15{
  fill: #ff7777; fill-opacity: 0.5;
  stroke: #ff7777;
  stroke-linecap:round;
  stroke-linejoin:round;
  stroke-width: 0.24;
}
.l16{
  fill: #bfff81; fill-opacity: 0.5;
  stroke: #bfff81;
  stroke-linecap:round;
  stroke-linejoin:round;
  stroke-width: 0.24;
}
.l17{
  fill: #00ffcc; fill-opacity: 0.2;
  stroke: #00ffcc;
  stroke-linecap:round;
  stroke-linejoin:round;
  stroke-width: 0.24;
}
.l18{
  fill: #ce0097; fill-opacity: 0.5;
  stroke: #ce0097;
  stroke-linecap:round;
  stroke-linejoin:round;
  stroke-width: 0.24;
}
.l19{
  fill: #d2d46b; fill-opacity: 0.2;
  stroke: #d2d46b;
  stroke-linecap:round;
  stroke-linejoin:round;
  stroke-width: 0.24;
}
.l20{
  fill: #ef6158; fill-opacity: 0.2;
  stroke: #ef6158;
  stroke-linecap:round;
  stroke-linejoin:round;
  stroke-width: 0.24;
}
.l21{
  fill: #fdb200; fill-opacity: 0.2;
  stroke: #fdb200;
  stroke-linecap:round;
  stroke-linejoin:round;
  stroke-width: 0.24;
}
text {font-family: Sans-Serif;}
</style>
<rect class="l0" x="0" y="0" width="1000" height="700"/>
<path class="l4" d="M550 0L550 270"/>
<path class="l4" d="M310 270L550 270"/>
<path class="l4" d="M310 0L310 270"/>
<path class="l4" d="M300 30L310 30"/>
<path class="l4" d="M300 110L310 110"/>
<path class="l4" d="M300 190L310 190"/>
<path class="l4" d="M550 55L560 55"/>
<path class="l4" d="M550 165L560 165"/>
<path class="l4" d="M430 270L430 280"/>
<path class="l5" d="M297.5 27.5L302.5 27.5L302.5 32.5L297.5 32.5L297.5 27.5z"/>
<path class="l5" d="M297.5 107.5L302.5 107.5L302.5 112.5L297.5 112.5L297.5 107.5z"/>
<path class="l5" d="M297.5 187.5L302.5 187.5L302.5 192.5L297.5 192.5L297.5 187.5z"/>
<path class="l5" d="M557.5 52.5L562.5 52.5L562.5 57.5L557.5 57.5L557.5 52.5z"/>
<path class="l5" d="M557.5 162.5L562.5 162.5L562.5 167.5L557.5 167.5L557.5 162.5z"/>
<path class="l5" d="M427.5 277.5L432.5 277.5L432.5 282.5L427.5 282.5L427.5 277.5z"/>
<path class="l5" d="M558.75 13.75L561.25 13.75L561.25 16.25L558.75 16.25L558.75 13.75z"/>
<path class="l5" d="M298.75 228.75L301.25 228.75L301.25 231.25L298.75 231.25L298.75 228.75z"/>
<path class="l5" d="M248.75 108.75L251.25 108.75L251.25 111.25L248.75 111.25L248.75 108.75z"/>
<path class="l5" d="M558.75 203.75L561.25 203.75L561.25 206.25L558.75 206.25L558.75 203.75z"/>
<path class="l5" d="M428.75 318.75L431.25 318.75L431.25 321.25L428.75 321.25L428.75 318.75z"/>
<text fill="#cccccc"  xml:space="preserve" font-size="13" transform="translate(318, 33.804)" >ibias</text>
<text fill="#cccccc"  xml:space="preserve" font-size="13" transform="translate(318, 113.804)" >ilim_en</text>
<text fill="#cccccc"  xml:space="preserve" font-size="13" transform="translate(318, 193.804)" >vout</text>
<text fill="#cccccc"  xml:space="preserve" font-size="13" transform="translate(514, 58.804)" >eout</text>
<text fill="#cccccc"  xml:space="preserve" font-size="13" transform="translate(528, 168.804)" >oc</text>
<text fill="#cccccc"  xml:space="preserve" font-size="13" transform="translate(435, 263.804)" >vss</text>
<text fill="#00aaff"  xml:space="preserve" font-size="15.6" transform="translate(318, 112.165)" >ldo_ilim</text>
<text fill="#00ddff"  xml:space="preserve" font-size="17.16" transform="translate(512.5, 22.4563)" >eout</text>
<text fill="#00ddff"  xml:space="preserve" font-size="17.16" transform="translate(253.5, 237.456)" >vout</text>
<text fill="#00ddff"  xml:space="preserve" font-size="17.16" transform="translate(251.5, -2.54372)" >ibias</text>
<text fill="#00ddff"  xml:space="preserve" font-size="17.16" transform="translate(257.5, 117.456)" >ilim_en</text>
<text fill="#00ddff"  xml:space="preserve" font-size="17.16" transform="translate(532.5, 212.456)" >oc</text>
<text fill="#00ddff"  xml:space="preserve" font-size="17.16" transform="translate(394.5, 327.456)" >vss</text>
<path class="l1" d="M560 15L560 55"/>
<path class="l1" d="M300 190L300 230"/>
<path class="l1" d="M300 0L300 30"/>
<path class="l1" d="M250 110L300 110"/>
<path class="l1" d="M560 165L560 205"/>
<path class="l1" d="M430 280L430 320"/>
</svg>
