<svg xmlns="http://www.w3.org/2000/svg" width="650" height="380" viewBox="0 0 650 380" font-family="sans-serif" font-size="12">
<title>Loop gain and phase</title>
<rect width="650" height="380" fill="#ffffff"/>
<rect x="70" y="30" width="550" height="180" fill="none" stroke="#334155" stroke-width="1"/>
<line x1="70.0" y1="210" x2="70.0" y2="214" stroke="#334155"/>
<text x="70.0" y="228" text-anchor="middle" fill="#334155">1e0</text>
<line x1="180.0" y1="210" x2="180.0" y2="214" stroke="#334155"/>
<text x="180.0" y="228" text-anchor="middle" fill="#334155">1e2</text>
<line x1="180.0" y1="30" x2="180.0" y2="210" stroke="#e2e8f0" stroke-width="1"/>
<line x1="290.0" y1="210" x2="290.0" y2="214" stroke="#334155"/>
<text x="290.0" y="228" text-anchor="middle" fill="#334155">1e4</text>
<line x1="290.0" y1="30" x2="290.0" y2="210" stroke="#e2e8f0" stroke-width="1"/>
<line x1="400.0" y1="210" x2="400.0" y2="214" stroke="#334155"/>
<text x="400.0" y="228" text-anchor="middle" fill="#334155">1e5</text>
<line x1="400.0" y1="30" x2="400.0" y2="210" stroke="#e2e8f0" stroke-width="1"/>
<line x1="510.0" y1="210" x2="510.0" y2="214" stroke="#334155"/>
<text x="510.0" y="228" text-anchor="middle" fill="#334155">1e7</text>
<line x1="510.0" y1="30" x2="510.0" y2="210" stroke="#e2e8f0" stroke-width="1"/>
<line x1="620.0" y1="210" x2="620.0" y2="214" stroke="#334155"/>
<text x="620.0" y="228" text-anchor="middle" fill="#334155">1e9</text>
<line x1="620.0" y1="30" x2="620.0" y2="210" stroke="#e2e8f0" stroke-width="1"/>
<line x1="66" y1="210.0" x2="70" y2="210.0" stroke="#334155"/>
<text x="62" y="214.0" text-anchor="end" fill="#334155">-40</text>
<line x1="66" y1="174.0" x2="70" y2="174.0" stroke="#334155"/>
<text x="62" y="178.0" text-anchor="end" fill="#334155">-6</text>
<line x1="70" y1="174.0" x2="620" y2="174.0" stroke="#e2e8f0" stroke-width="1"/>
<line x1="66" y1="138.0" x2="70" y2="138.0" stroke="#334155"/>
<text x="62" y="142.0" text-anchor="end" fill="#334155">28</text>
<line x1="70" y1="138.0" x2="620" y2="138.0" stroke="#e2e8f0" stroke-width="1"/>
<line x1="66" y1="102.0" x2="70" y2="102.0" stroke="#334155"/>
<text x="62" y="106.0" text-anchor="end" fill="#334155">62</text>
<line x1="70" y1="102.0" x2="620" y2="102.0" stroke="#e2e8f0" stroke-width="1"/>
<line x1="66" y1="66.0" x2="70" y2="66.0" stroke="#334155"/>
<text x="62" y="70.0" text-anchor="end" fill="#334155">96</text>
<line x1="70" y1="66.0" x2="620" y2="66.0" stroke="#e2e8f0" stroke-width="1"/>
<line x1="66" y1="30.0" x2="70" y2="30.0" stroke="#334155"/>
<text x="62" y="34.0" text-anchor="end" fill="#334155">130</text>
<line x1="70" y1="30.0" x2="620" y2="30.0" stroke="#e2e8f0" stroke-width="1"/>
<text x="345" y="248" text-anchor="middle" fill="#0f172a"></text>
<text x="18" y="120" text-anchor="middle" fill="#0f172a" transform="rotate(-90 18 120)">loop gain (dB)</text>
<line x1="70" y1="167.6" x2="620" y2="167.6" stroke="#64748b" stroke-width="1.5" stroke-dasharray="6 4"/>
<text x="616" y="162.6" text-anchor="end" fill="#64748b">0 dB</text>
<path d="M70.0,54.9 L71.5,54.9 L73.1,54.9 L74.6,54.9 L76.1,54.9 L77.6,54.9 L79.2,54.9 L80.7,54.9 L82.2,54.9 L83.8,54.9 L85.3,54.9 L86.8,54.9 L88.3,54.9 L89.9,54.9 L91.4,54.9 L92.9,54.9 L94.4,54.9 L96.0,54.9 L97.5,54.9 L99.0,54.9 L100.6,54.9 L102.1,54.9 L103.6,54.9 L105.1,54.9 L106.7,55.0 L108.2,55.0 L109.7,55.0 L111.3,55.0 L112.8,55.0 L114.3,55.0 L115.8,55.0 L117.4,55.1 L118.9,55.1 L120.4,55.1 L121.9,55.1 L123.5,55.2 L125.0,55.2 L126.5,55.2 L128.1,55.3 L129.6,55.3 L131.1,55.4 L132.6,55.4 L134.2,55.5 L135.7,55.6 L137.2,55.7 L138.7,55.7 L140.3,55.8 L141.8,55.9 L143.3,56.1 L144.9,56.2 L146.4,56.3 L147.9,56.5 L149.4,56.6 L151.0,56.8 L152.5,57.0 L154.0,57.2 L155.6,57.4 L157.1,57.7 L158.6,57.9 L160.1,58.2 L161.7,58.4 L163.2,58.7 L164.7,59.1 L166.2,59.4 L167.8,59.7 L169.3,60.1 L170.8,60.4 L172.4,60.8 L173.9,61.2 L175.4,61.6 L176.9,62.0 L178.5,62.4 L180.0,62.9 L181.5,63.3 L183.1,63.8 L184.6,64.2 L186.1,64.7 L187.6,65.1 L189.2,65.6 L190.7,66.1 L192.2,66.6 L193.8,67.1 L195.3,67.6 L196.8,68.1 L198.3,68.6 L199.9,69.1 L201.4,69.6 L202.9,70.1 L204.4,70.6 L206.0,71.1 L207.5,71.6 L209.0,72.1 L210.6,72.7 L212.1,73.2 L213.6,73.7 L215.1,74.2 L216.7,74.7 L218.2,75.3 L219.7,75.8 L221.3,76.3 L222.8,76.8 L224.3,77.4 L225.8,77.9 L227.4,78.4 L228.9,78.9 L230.4,79.5 L231.9,80.0 L233.5,80.5 L235.0,81.0 L236.5,81.6 L238.1,82.1 L239.6,82.6 L241.1,83.2 L242.6,83.7 L244.2,84.2 L245.7,84.8 L247.2,85.3 L248.8,85.8 L250.3,86.3 L251.8,86.9 L253.3,87.4 L254.9,87.9 L256.4,88.5 L257.9,89.0 L259.4,89.5 L261.0,90.1 L262.5,90.6 L264.0,91.1 L265.6,91.7 L267.1,92.2 L268.6,92.7 L270.1,93.3 L271.7,93.8 L273.2,94.3 L274.7,94.9 L276.3,95.4 L277.8,96.0 L279.3,96.5 L280.8,97.0 L282.4,97.6 L283.9,98.1 L285.4,98.7 L286.9,99.2 L288.5,99.8 L290.0,100.3 L291.5,100.9 L293.1,101.5 L294.6,102.0 L296.1,102.6 L297.6,103.2 L299.2,103.8 L300.7,104.4 L302.2,105.0 L303.8,105.6 L305.3,106.2 L306.8,106.8 L308.3,107.4 L309.9,108.0 L311.4,108.7 L312.9,109.3 L314.4,110.0 L316.0,110.7 L317.5,111.3 L319.0,112.0 L320.6,112.8 L322.1,113.5 L323.6,114.2 L325.1,115.0 L326.7,115.7 L328.2,116.5 L329.7,117.3 L331.3,118.1 L332.8,118.9 L334.3,119.8 L335.8,120.6 L337.4,121.5 L338.9,122.3 L340.4,123.2 L341.9,124.1 L343.5,125.0 L345.0,125.8 L346.5,126.7 L348.1,127.6 L349.6,128.5 L351.1,129.4 L352.6,130.3 L354.2,131.2 L355.7,132.1 L357.2,133.0 L358.7,133.9 L360.3,134.7 L361.8,135.6 L363.3,136.5 L364.9,137.3 L366.4,138.2 L367.9,139.0 L369.4,139.8 L371.0,140.6 L372.5,141.4 L374.0,142.2 L375.6,142.9 L377.1,143.7 L378.6,144.4 L380.1,145.1 L381.7,145.8 L383.2,146.5 L384.7,147.2 L386.3,147.9 L387.8,148.5 L389.3,149.2 L390.8,149.8 L392.4,150.5 L393.9,151.1 L395.4,151.7 L396.9,152.3 L398.5,152.9 L400.0,153.5 L401.5,154.1 L403.1,154.7 L404.6,155.3 L406.1,155.9 L407.6,156.5 L409.2,157.1 L410.7,157.6 L412.2,158.2 L413.7,158.8 L415.3,159.4 L416.8,159.9 L418.3,160.5 L419.9,161.1 L421.4,161.7 L422.9,162.3 L424.4,162.9 L426.0,163.5 L427.5,164.1 L429.0,164.7 L430.6,165.3 L432.1,166.0 L433.6,166.6 L435.1,167.3 L436.7,167.9 L438.2,168.6 L439.7,169.3 L441.3,170.0 L442.8,170.7 L444.3,171.5 L445.8,172.3 L447.4,173.1 L448.9,173.9 L450.4,174.7 L451.9,175.6 L453.5,176.5 L455.0,177.3 L456.5,178.1 L458.1,178.9 L459.6,179.6 L461.1,180.2 L462.6,180.6 L464.2,180.8 L465.7,180.7 L467.2,180.5 L468.7,180.2 L470.3,179.7 L471.8,179.2 L473.3,178.6 L474.9,178.0 L476.4,177.4 L477.9,176.9 L479.4,176.3 L481.0,175.8 L482.5,175.2 L484.0,174.7 L485.6,174.2 L487.1,173.7 L488.6,173.3 L490.1,172.8 L491.7,172.3 L493.2,171.9 L494.7,171.5 L496.2,171.0 L497.8,170.6 L499.3,170.2 L500.8,169.8 L502.4,169.4 L503.9,169.0 L505.4,168.6 L506.9,168.2 L508.5,167.9 L510.0,167.5 L511.5,167.1 L513.1,166.7 L514.6,166.3 L516.1,165.9 L517.6,165.6 L519.2,165.2 L520.7,164.8 L522.2,164.4 L523.8,164.0 L525.3,163.7 L526.8,163.3 L528.3,162.9 L529.9,162.6 L531.4,162.2 L532.9,161.8 L534.4,161.5 L536.0,161.1 L537.5,160.8 L539.0,160.5 L540.6,160.1 L542.1,159.8 L543.6,159.5 L545.1,159.2 L546.7,158.9 L548.2,158.7 L549.7,158.4 L551.2,158.2 L552.8,157.9 L554.3,157.7 L555.8,157.5 L557.4,157.3 L558.9,157.1 L560.4,157.0 L561.9,156.8 L563.5,156.7 L565.0,156.5 L566.5,156.4 L568.1,156.3 L569.6,156.2 L571.1,156.1 L572.6,156.0 L574.2,155.9 L575.7,155.8 L577.2,155.8 L578.8,155.7 L580.3,155.6 L581.8,155.6 L583.3,155.5 L584.9,155.5 L586.4,155.5 L587.9,155.4 L589.4,155.4 L591.0,155.4 L592.5,155.3 L594.0,155.3 L595.6,155.3 L597.1,155.3 L598.6,155.3 L600.1,155.3 L601.7,155.2 L603.2,155.2 L604.7,155.2 L606.3,155.2 L607.8,155.2 L609.3,155.2 L610.8,155.2 L612.4,155.2 L613.9,155.2 L615.4,155.2 L616.9,155.2 L618.5,155.3 L620.0,155.3" fill="none" stroke="#2563eb" stroke-width="2" stroke-linejoin="round"/>
<line x1="436.0" y1="30" x2="436.0" y2="330" stroke="#16a34a" stroke-width="1.5" stroke-dasharray="4 3"/>
<rect x="70" y="250" width="550" height="80" fill="none" stroke="#334155" stroke-width="1"/>
<line x1="70.0" y1="330" x2="70.0" y2="334" stroke="#334155"/>
<text x="70.0" y="348" text-anchor="middle" fill="#334155">1e0</text>
<line x1="180.0" y1="330" x2="180.0" y2="334" stroke="#334155"/>
<text x="180.0" y="348" text-anchor="middle" fill="#334155">1e2</text>
<line x1="180.0" y1="250" x2="180.0" y2="330" stroke="#e2e8f0" stroke-width="1"/>
<line x1="290.0" y1="330" x2="290.0" y2="334" stroke="#334155"/>
<text x="290.0" y="348" text-anchor="middle" fill="#334155">1e4</text>
<line x1="290.0" y1="250" x2="290.0" y2="330" stroke="#e2e8f0" stroke-width="1"/>
<line x1="400.0" y1="330" x2="400.0" y2="334" stroke="#334155"/>
<text x="400.0" y="348" text-anchor="middle" fill="#334155">1e5</text>
<line x1="400.0" y1="250" x2="400.0" y2="330" stroke="#e2e8f0" stroke-width="1"/>
<line x1="510.0" y1="330" x2="510.0" y2="334" stroke="#334155"/>
<text x="510.0" y="348" text-anchor="middle" fill="#334155">1e7</text>
<line x1="510.0" y1="250" x2="510.0" y2="330" stroke="#e2e8f0" stroke-width="1"/>
<line x1="620.0" y1="330" x2="620.0" y2="334" stroke="#334155"/>
<text x="620.0" y="348" text-anchor="middle" fill="#334155">1e9</text>
<line x1="620.0" y1="250" x2="620.0" y2="330" stroke="#e2e8f0" stroke-width="1"/>
<line x1="66" y1="330.0" x2="70" y2="330.0" stroke="#334155"/>
<text x="62" y="334.0" text-anchor="end" fill="#334155">-180</text>
<line x1="66" y1="314.0" x2="70" y2="314.0" stroke="#334155"/>
<text x="62" y="318.0" text-anchor="end" fill="#334155">-144</text>
<line x1="70" y1="314.0" x2="620" y2="314.0" stroke="#e2e8f0" stroke-width="1"/>
<line x1="66" y1="298.0" x2="70" y2="298.0" stroke="#334155"/>
<text x="62" y="302.0" text-anchor="end" fill="#334155">-108</text>
<line x1="70" y1="298.0" x2="620" y2="298.0" stroke="#e2e8f0" stroke-width="1"/>
<line x1="66" y1="282.0" x2="70" y2="282.0" stroke="#334155"/>
<text x="62" y="286.0" text-anchor="end" fill="#334155">-72</text>
<line x1="70" y1="282.0" x2="620" y2="282.0" stroke="#e2e8f0" stroke-width="1"/>
<line x1="66" y1="266.0" x2="70" y2="266.0" stroke="#334155"/>
<text x="62" y="270.0" text-anchor="end" fill="#334155">-36</text>
<line x1="70" y1="266.0" x2="620" y2="266.0" stroke="#e2e8f0" stroke-width="1"/>
<line x1="66" y1="250.0" x2="70" y2="250.0" stroke="#334155"/>
<text x="62" y="254.0" text-anchor="end" fill="#334155">0</text>
<line x1="70" y1="250.0" x2="620" y2="250.0" stroke="#e2e8f0" stroke-width="1"/>
<text x="345" y="368" text-anchor="middle" fill="#0f172a">frequency (Hz)</text>
<text x="18" y="290" text-anchor="middle" fill="#0f172a" transform="rotate(-90 18 290)">phase (deg)</text>
<path d="M70.0,250.9 L71.5,250.9 L73.1,251.0 L74.6,251.0 L76.1,251.1 L77.6,251.2 L79.2,251.2 L80.7,251.3 L82.2,251.4 L83.8,251.5 L85.3,251.6 L86.8,251.6 L88.3,251.7 L89.9,251.8 L91.4,252.0 L92.9,252.1 L94.4,252.2 L96.0,252.3 L97.5,252.5 L99.0,252.6 L100.6,252.8 L102.1,252.9 L103.6,253.1 L105.1,253.3 L106.7,253.5 L108.2,253.7 L109.7,253.9 L111.3,254.1 L112.8,254.3 L114.3,254.6 L115.8,254.9 L117.4,255.1 L118.9,255.4 L120.4,255.7 L121.9,256.1 L123.5,256.4 L125.0,256.8 L126.5,257.2 L128.1,257.6 L129.6,258.0 L131.1,258.4 L132.6,258.9 L134.2,259.4 L135.7,259.9 L137.2,260.4 L138.7,260.9 L140.3,261.5 L141.8,262.1 L143.3,262.7 L144.9,263.3 L146.4,264.0 L147.9,264.6 L149.4,265.3 L151.0,266.0 L152.5,266.7 L154.0,267.4 L155.6,268.1 L157.1,268.9 L158.6,269.6 L160.1,270.3 L161.7,271.1 L163.2,271.8 L164.7,272.5 L166.2,273.2 L167.8,274.0 L169.3,274.6 L170.8,275.3 L172.4,276.0 L173.9,276.6 L175.4,277.3 L176.9,277.9 L178.5,278.5 L180.0,279.1 L181.5,279.6 L183.1,280.1 L184.6,280.7 L186.1,281.1 L187.6,281.6 L189.2,282.1 L190.7,282.5 L192.2,282.9 L193.8,283.3 L195.3,283.7 L196.8,284.0 L198.3,284.4 L199.9,284.7 L201.4,285.0 L202.9,285.3 L204.4,285.6 L206.0,285.8 L207.5,286.1 L209.0,286.3 L210.6,286.6 L212.1,286.8 L213.6,287.0 L215.1,287.2 L216.7,287.4 L218.2,287.6 L219.7,287.7 L221.3,287.9 L222.8,288.1 L224.3,288.2 L225.8,288.4 L227.4,288.5 L228.9,288.7 L230.4,288.8 L231.9,288.9 L233.5,289.0 L235.0,289.2 L236.5,289.3 L238.1,289.4 L239.6,289.5 L241.1,289.6 L242.6,289.8 L244.2,289.9 L245.7,290.0 L247.2,290.1 L248.8,290.2 L250.3,290.3 L251.8,290.4 L253.3,290.6 L254.9,290.7 L256.4,290.8 L257.9,290.9 L259.4,291.0 L261.0,291.2 L262.5,291.3 L264.0,291.4 L265.6,291.6 L267.1,291.7 L268.6,291.9 L270.1,292.0 L271.7,292.2 L273.2,292.4 L274.7,292.6 L276.3,292.7 L277.8,292.9 L279.3,293.1 L280.8,293.4 L282.4,293.6 L283.9,293.8 L285.4,294.1 L286.9,294.3 L288.5,294.6 L290.0,294.9 L291.5,295.2 L293.1,295.5 L294.6,295.8 L296.1,296.1 L297.6,296.5 L299.2,296.9 L300.7,297.2 L302.2,297.6 L303.8,298.0 L305.3,298.5 L306.8,298.9 L308.3,299.4 L309.9,299.8 L311.4,300.3 L312.9,300.8 L314.4,301.3 L316.0,301.8 L317.5,302.3 L319.0,302.9 L320.6,303.4 L322.1,303.9 L323.6,304.4 L325.1,304.9 L326.7,305.4 L328.2,305.9 L329.7,306.4 L331.3,306.9 L332.8,307.3 L334.3,307.7 L335.8,308.1 L337.4,308.4 L338.9,308.8 L340.4,309.1 L341.9,309.3 L343.5,309.5 L345.0,309.7 L346.5,309.9 L348.1,310.0 L349.6,310.0 L351.1,310.0 L352.6,310.0 L354.2,309.9 L355.7,309.8 L357.2,309.7 L358.7,309.5 L360.3,309.3 L361.8,309.1 L363.3,308.8 L364.9,308.5 L366.4,308.2 L367.9,307.8 L369.4,307.4 L371.0,307.0 L372.5,306.6 L374.0,306.2 L375.6,305.8 L377.1,305.4 L378.6,304.9 L380.1,304.5 L381.7,304.1 L383.2,303.7 L384.7,303.3 L386.3,302.9 L387.8,302.5 L389.3,302.1 L390.8,301.8 L392.4,301.4 L393.9,301.1 L395.4,300.9 L396.9,300.6 L398.5,300.4 L400.0,300.2 L401.5,300.0 L403.1,299.8 L404.6,299.7 L406.1,299.6 L407.6,299.5 L409.2,299.5 L410.7,299.4 L412.2,299.4 L413.7,299.5 L415.3,299.6 L416.8,299.7 L418.3,299.8 L419.9,300.0 L421.4,300.1 L422.9,300.4 L424.4,300.7 L426.0,301.0 L427.5,301.3 L429.0,301.7 L430.6,302.1 L432.1,302.6 L433.6,303.2 L435.1,303.7 L436.7,304.4 L438.2,305.1 L439.7,305.9 L441.3,306.8 L442.8,307.7 L444.3,308.8 L445.8,310.0 L447.4,311.3 L448.9,312.7 L450.4,314.4 L451.9,316.3 L453.5,318.4 L455.0,320.8 L456.5,323.5 L458.1,326.6 L459.6,330.1 L461.1,333.9 L462.6,337.9 L464.2,342.0 L465.7,346.1 L467.2,349.9 L468.7,353.4 L470.3,356.6 L471.8,359.3 L473.3,361.8 L474.9,363.9 L476.4,365.7 L477.9,367.3 L479.4,368.7 L481.0,370.0 L482.5,371.1 L484.0,372.1 L485.6,373.0 L487.1,373.8 L488.6,374.5 L490.1,375.2 L491.7,375.8 L493.2,376.4 L494.7,376.9 L496.2,377.5 L497.8,377.9 L499.3,378.4 L500.8,378.8 L502.4,379.2 L503.9,379.6 L505.4,380.0 L506.9,380.3 L508.5,380.7 L510.0,381.0 L511.5,381.3 L513.1,381.6 L514.6,381.9 L516.1,382.3 L517.6,382.6 L519.2,382.9 L520.7,383.2 L522.2,383.5 L523.8,383.9 L525.3,384.2 L526.8,384.6 L528.3,385.0 L529.9,385.4 L531.4,385.8 L532.9,386.2 L534.4,386.7 L536.0,387.1 L537.5,387.6 L539.0,388.1 L540.6,388.7 L542.1,389.2 L543.6,389.8 L545.1,390.3 L546.7,390.9 L548.2,391.5 L549.7,392.1 L551.2,392.7 L552.8,393.3 L554.3,394.0 L555.8,394.6 L557.4,395.2 L558.9,395.8 L560.4,396.4 L561.9,397.0 L563.5,397.6 L565.0,398.1 L566.5,398.7 L568.1,399.2 L569.6,399.8 L571.1,400.3 L572.6,400.8 L574.2,401.3 L575.7,401.7 L577.2,402.2 L578.8,402.6 L580.3,403.1 L581.8,403.5 L583.3,403.9 L584.9,404.2 L586.4,404.6 L587.9,405.0 L589.4,405.3 L591.0,405.7 L592.5,406.0 L594.0,406.3 L595.6,406.6 L597.1,406.9 L598.6,407.2 L600.1,407.5 L601.7,407.8 L603.2,408.0 L604.7,408.3 L606.3,408.6 L607.8,408.8 L609.3,409.1 L610.8,409.3 L612.4,409.6 L613.9,409.8 L615.4,410.1 L616.9,410.3 L618.5,410.6 L620.0,410.8" fill="none" stroke="#7c3aed" stroke-width="2" stroke-linejoin="round"/>
<text x="620" y="24" text-anchor="end" fill="#0f172a">010u load — crossover 977 kHz, phase margin 58.2°</text>
</svg>
